HIERARCHY
ROOT Spine
{
    OFFSET 0.0 0.0 -0.0
    CHANNELS 6 Xposition Yposition Zposition Zrotation Xrotation Yrotation
    JOINT ShoulderCenter
    {
        OFFSET 0.0 23.078266143798828 0.0
        CHANNELS 3 Zrotation Xrotation Yrotation
        JOINT LeftShoulder
        {
            OFFSET 16.376724243164062 0.0 0.0
            CHANNELS 3 Zrotation Xrotation Yrotation
            JOINT LeftElbow
            {
                OFFSET 23.432689666748047 0.0 0.0
                CHANNELS 3 Zrotation Xrotation Yrotation
                JOINT LeftHand
                {
                    OFFSET 23.67168617248535 0.0 0.0
                    CHANNELS 3 Zrotation Xrotation Yrotation
                    End Site
                    {
                        OFFSET 9.468674659729004 0.0 0.0
                    }
                }
            }
        }
        JOINT RightShoulder
        {
            OFFSET -16.376724243164062 0.0 0.0
            CHANNELS 3 Zrotation Xrotation Yrotation
            JOINT RightElbow
            {
                OFFSET -23.432689666748047 0.0 0.0
                CHANNELS 3 Zrotation Xrotation Yrotation
                JOINT RightHand
                {
                    OFFSET -23.67168617248535 0.0 0.0
                    CHANNELS 3 Zrotation Xrotation Yrotation
                    End Site
                    {
                        OFFSET -9.468674659729004 0.0 0.0
                    }
                }
            }
        }
        End Site
        {
            OFFSET 0.0 9.231306076049805 0.0
        }
    }
    JOINT LeftHip
    {
        OFFSET 22.41887708893592 -22.41887708893592 0.0
        CHANNELS 3 Zrotation Xrotation Yrotation
        JOINT LeftKnee
        {
            OFFSET 0.0 -31.095796585083008 0.0
            CHANNELS 3 Zrotation Xrotation Yrotation
            JOINT LeftFoot
            {
                OFFSET 0.0 -36.806663513183594 0.0
                CHANNELS 3 Zrotation Xrotation Yrotation
                End Site
                {
                    OFFSET 0.0 0.0 14.722665786743164
                }
            }
        }
    }
    JOINT RightHip
    {
        OFFSET -22.41887708893592 -22.41887708893592 0.0
        CHANNELS 3 Zrotation Xrotation Yrotation
        JOINT RightKnee
        {
            OFFSET 0.0 -31.095796585083008 0.0
            CHANNELS 3 Zrotation Xrotation Yrotation
            JOINT RightFoot
            {
                OFFSET 0.0 -36.806663513183594 0.0
                CHANNELS 3 Zrotation Xrotation Yrotation
                End Site
                {
                    OFFSET 0.0 0.0 14.722665786743164
                }
            }
        }
    }
}
MOTION
Frames: 10
Frame Time: 0.03333333333333333
32.5343017578125 13.989099502563477 -295.6434020996094 -0.1344719189038352 9.670242767586837 10.242882604347082 1.8042184031529264e-07 1.0382146341214076e-06 -175.04795992764244 -56.87028867033576 -55.16795288292056 8.848529041525921 -1.8779315109357546e-06 -5.3485081503856954e-06 128.73591398059474 3.1805546814635176e-15 6.361109362927035e-15 -1.5902773407317592e-15 83.42614886287305 -31.79040620847057 5.600592392622056 -6.954341769402335e-07 -6.435889580525354e-07 -22.28879914857819 -2.5842006786891076e-15 -3.1805546814635168e-15 -7.172597734331508e-32 -5.8927365465744765 1.141588436968319 -25.64722166033602 16.5285470543628 -17.930075468615666 82.52320290203649 3.681128885287925e-32 1.3914926731402884e-15 -3.031466180769914e-15 -10.148050670083386 -14.783893464677536 -51.50283074059242 8.5263675055914 -2.2001328140233856 -6.650623337842143 -6.896728590703373e-33 -1.987846675914698e-16 -3.975693351829396e-15
32.709800720214844 14.00420093536377 -295.9433898925781 -0.30231369786510287 9.83462360557753 10.83418462240786 -4.2553428784929955e-09 -9.831529456117488e-07 -174.9562631800724 -57.682193206011824 -47.8886186515855 10.069261747839166 -8.407071357528884e-07 -2.398933761124194e-06 121.63736373191865 -3.1805546814635168e-15 6.1623246953355635e-15 -3.1805546814635168e-15 83.8007143360317 -30.67950465930457 4.634574156859265 -2.6655779229907203e-06 3.3241672941564144e-06 -21.98274117738933 -3.975693351829396e-15 7.951386703658792e-16 -1.5902773407317584e-15 -5.796792097543433 0.9332278298325204 -26.020085360238077 16.54975368499523 -18.223025941710194 83.27419966368427 -3.9756933518293955e-16 -1.0172674671287475e-32 2.9320738469741793e-15 -10.551186671318138 -14.549990739415994 -51.320449081542776 9.346216570505703 -1.8422054009585 -5.498982888321033 0.0 0.0 2.484808344893372e-15
32.748897552490234 14.036299705505371 -295.9634094238281 -0.38037128822487837 9.839769490402931 10.751107386976443 4.873899912970476e-09 -1.6156536785031227e-07 -174.75143234025305 -57.88403657970477 -44.07505243804233 11.452634122646623 2.2793700038889642e-07 -8.938833484710461e-07 116.73785317256285 0.0 0.0 1.5902773407317584e-15 83.84451916827689 -30.49271942842233 4.3885538605455965 -4.052478117905035e-06 1.4908774628247802e-07 -21.93388312979624 -8.348956038841733e-15 -1.5902773407317588e-15 -1.1586504032381667e-31 -5.684144335309746 0.946707608195797 -26.284000689809368 16.63630179890165 -18.23292861897706 83.75168567295991 1.1927080055488184e-15 -7.241565020238542e-33 -6.957463365701441e-16 -10.560344609809405 -14.539817642640848 -51.467527319296366 9.5172964289008 -1.628274739446054 -4.843051730097275 3.975693351829396e-16 1.987846675914698e-16 2.782985346280577e-15
32.76110076904297 14.089700698852539 -295.98309326171875 -0.39643005031220585 9.740256313127524 10.63302058000143 -1.0229686747586618e-07 -7.598106535091075e-08 -174.49935720693574 -56.90699437095595 -43.03585199516393 11.009602630163306 3.953160593512194e-07 -7.871422164785495e-07 108.54366346015009 0.0 6.361109362927033e-15 0.0 83.7607514197669 -30.87164313407492 4.283957932376642 3.268413702610187e-06 -1.1926192290119836e-06 -22.28324976109162 1.1927080055488188e-15 0.0 0.0 -5.638955380385348 1.1526701448137027 -27.0129379135043 16.893156540734914 -18.230182111773072 84.41469719822722 3.975693351829396e-16 2.0517767557342535e-32 5.913843860846227e-15 -10.570120123848794 -14.352074927413877 -50.889713526934806 9.459292766147124 -2.2441335489263805 -6.765848033255584 -1.0276125600148025e-31 1.5902773407317584e-15 7.40472886778225e-15
32.81840133666992 14.140600204467773 -296.0273132324219 -0.37487578248377135 9.622039972077426 10.796033676955856 3.951429304205764e-09 1.0201332647941336e-06 -174.18550400328002 -56.38532206036801 -42.280950977406285 11.13690013058984 3.6724372574802102e-06 1.8394995096151108e-06 100.10932305386406 1.5902773407317582e-15 -1.1034765745125397e-32 -7.951386703658791e-16 83.7893291791146 -32.46314636442041 4.004785622320535 1.6225796018673253e-06 -2.4773836710429853e-07 -20.947270057128296 8.150171371250262e-15 1.5902773407317584e-15 -1.1310634888753532e-31 -5.716530335944252 1.3368827936860679 -27.5557839058175 17.181779697519175 -18.022581691839765 85.0462421726952 -3.975693351829396e-16 1.987846675914698e-16 2.981770013872047e-16 -10.78505448918796 -13.870787962474447 -50.499049468843566 9.932543643820777 -2.9475993721367906 -8.915717797793818 -3.975693351829396e-16 -7.241565020238542e-33 2.087239009710433e-15
32.348899841308594 14.509900093078613 -294.71331787109375 1.0127135201649602 4.38292138379968 22.746153333856746 -2.5957839779318194e-07 -1.6174822712558796e-07 -175.6753487111107 -49.40244534775501 -65.68036856678194 21.711515217045825 2.2642310448887517e-06 -4.525637683546857e-06 30.936642048364035 0.0 0.0 -3.1805546814635168e-15 82.89061512846618 -37.029181384220344 -0.10142022813532078 1.0299539570112245e-06 1.3510695469236942e-06 -21.465342358100337 5.715059193254757e-16 9.914047349136098e-34 1.9878466759146985e-16 -5.155548847780081 11.39514470607818 -55.258061882422304 24.56823568159043 -10.886817987707685 92.05758737743116 2.981770013872048e-16 4.969616689786748e-17 6.882919115354643e-15 -8.733894696575836 4.733302434255104 58.813959814429474 -18.41473202627666 -7.842426126273212 -108.7132279049463 0.0 0.0 3.7272125173400585e-16
32.22090148925781 14.423100471496582 -294.4096984863281 1.5142080736141488 3.6418855155141463 24.3955895048668 2.8917791971238127e-08 -5.195070386632948e-08 -176.56626521285799 -48.68264812277701 -68.89285685453768 22.26517776582318 -3.985716537148695e-06 1.852372006147523e-06 27.959071013755324 1.2722218725854065e-14 -3.1805546814635164e-15 3.531125038440127e-31 83.25546067423245 -38.525196047238275 0.3506226475835745 -5.1004035813028715e-06 2.788385571851683e-06 -22.45926466001133 -1.1430118386509513e-15 -1.5862475758617757e-32 1.5902773407317584e-15 -5.030942886387321 12.957480972911721 -57.445680018564545 25.48646723113464 -10.425949931838916 92.54765445533118 -1.987846675914698e-16 -4.138037154422024e-33 2.3854160110976376e-15 -8.758965038220676 7.204103318366148 61.630597610547156 -19.866453463919644 -7.2258436827771595 -106.35004170065322 3.975693351829396e-16 -1.5902773407317584e-15 7.454425034680117e-16
32.22710037231445 14.371499061584473 -294.3360900878906 2.0268332343296063 3.432167010182426 25.22926488162635 2.4222666769983905e-07 -9.337799274864184e-08 -176.45029176812977 -53.97189202640668 -65.763657703614 17.050485543534403 9.578860389008474e-07 5.561152114474992e-07 21.01844711952527 6.3611093629270335e-15 -9.541664044390549e-15 6.3611093629270335e-15 83.1031500525877 -41.41738663247232 -0.08123780215533011 1.948215667097557e-07 9.114794226840085e-07 -22.018146010317604 3.0066180973209805e-15 -1.3039127491798564e-33 -4.969616689786745e-17 -5.654044421413272 13.576144747209709 -57.062506653663135 25.48893403976379 -10.458337725148489 89.13274100667118 3.975693351829396e-16 -9.939233379573492e-17 -5.2429456077250156e-15 -9.622539390448766 8.393845172513306 65.82454546059645 -20.91535076618118 -6.239928731168252 -113.24524689422059 1.9878466759146985e-16 -1.5902773407317588e-15 1.577853299007292e-15
32.1338996887207 14.260600090026855 -294.1517028808594 2.3767196039019867 3.0754193935774357 23.86219789057404 -2.2128679528918606e-07 -3.8213229328257596e-08 -174.705384139617 -54.00337003914753 -68.86208058244141 16.66853318316201 1.8297213221597793e-06 1.226736412939434e-06 20.643675796128424 0.0 0.0 0.0 83.1026023286877 -42.96955332722527 0.10870587994985781 -3.6832554933081927e-06 1.4734564916455865e-06 -22.778663093932206 -6.7571256928944145e-15 -1.5902773407317584e-15 -8.790009520060307e-16 -6.093806762786558 14.399307027134864 -56.96993324905357 26.189079449434864 -9.967411729540252 88.85433576407917 -7.951386703658794e-16 4.7415009061085686e-32 -6.8332229484567756e-15 -10.826564240806313 8.449567498556922 70.3214213181127 -20.29737081005704 -6.390855623777142 -113.09450439396268 -1.9878466759146977e-16 -5.819114748405971e-34 3.354491265606052e-16
31.970600128173828 14.129100799560547 -293.68780517578125 3.1391188277872213 2.4310058588145522 25.1349627697217 -2.3032467245343547e-07 -7.934852698118092e-08 -175.7610187661812 -59.50311328377629 -65.99709721924361 10.923640952204478 2.355828054086276e-06 2.5536366604300102e-06 20.21459424922618 0.0 0.0 3.1805546814635168e-15 83.78440886766191 -45.02647720520637 0.7733031747207362 4.256308028138167e-07 1.3190144247544783e-07 -20.435512367268974 2.584200678689107e-15 -1.5902773407317582e-15 -7.951386703658791e-16 -6.600508674870737 15.680245940484895 -56.85620369245586 26.185696246016636 -9.936472231568509 83.83584473267173 1.1927080055488192e-15 -1.603489397338534e-32 -1.5405811738338913e-15 -11.269332541541987 10.615542915135787 72.5942976280159 -21.168577483489997 -5.858924996988009 -110.21631169086218 -3.975693351829396e-16 2.2414367919785963e-33 -6.460501696722769e-16
